<?xml version="1.0" standalone="no"?>
<!DOCTYPE svg PUBLIC "-//W3C//DTD SVG 20010904//EN"
 "http://www.w3.org/TR/2001/REC-SVG-20010904/DTD/svg10.dtd">
<svg version="1.0" xmlns="http://www.w3.org/2000/svg"
 width="824.000000pt" height="226.000000pt" viewBox="0 0 824.000000 226.000000"
 preserveAspectRatio="xMidYMid meet">
<metadata>
Created by potrace 1.15, written by Peter Selinger 2001-2017
</metadata>
<g transform="translate(0.000000,226.000000) scale(0.100000,-0.100000)"
fill="#0098F7" stroke="none">
<path d="M6160 2238 c-18 -13 -43 -36 -54 -51 -21 -28 -21 -29 -21 -1051 l0
-1023 27 -35 c35 -46 102 -73 160 -65 48 6 84 30 116 77 l22 33 0 1010 0 1009
-21 38 c-43 77 -159 106 -229 58z"/>
<path d="M89 2127 c-18 -12 -44 -38 -56 -56 -22 -33 -23 -40 -23 -286 0 -245
1 -253 23 -285 33 -50 76 -71 143 -71 43 0 65 5 93 24 61 41 71 74 71 236 l0
141 408 0 c403 0 408 0 452 23 58 29 84 74 84 144 0 59 -19 93 -74 131 l-33
22 -527 0 -527 0 -34 -23z"/>
<path d="M2019 1510 c-102 -18 -185 -71 -245 -156 -34 -47 -34 -47 -34 -18 0
49 -40 116 -85 142 -31 18 -51 22 -93 19 -59 -4 -94 -25 -129 -77 l-23 -33 0
-632 0 -632 23 -33 c33 -49 70 -72 124 -77 69 -6 130 27 161 87 21 43 22 55
22 310 0 146 5 297 10 335 32 224 109 367 225 421 43 21 66 24 162 24 171 0
228 32 239 137 9 82 -43 149 -135 172 -56 15 -171 21 -222 11z"/>
<path d="M3083 1509 c-298 -35 -546 -247 -625 -536 -30 -110 -30 -315 0 -426
56 -208 192 -376 377 -468 118 -58 214 -79 360 -79 227 0 403 69 548 214 150
149 229 372 214 600 -8 120 -28 192 -81 301 -110 225 -318 363 -591 395 -99
11 -100 11 -202 -1z m197 -329 c278 -53 424 -352 300 -617 -124 -268 -490
-327 -695 -112 -201 210 -145 564 108 689 96 47 185 59 287 40z"/>
<path d="M4804 1509 c-91 -11 -141 -26 -229 -69 -244 -118 -386 -341 -402
-632 -14 -249 64 -457 229 -614 138 -131 302 -194 502 -194 172 0 303 41 412
128 l51 40 12 -38 c35 -118 186 -157 272 -71 22 21 42 54 48 79 8 29 11 219 9
639 -3 680 0 650 -85 700 -89 52 -202 14 -238 -81 l-17 -44 -76 52 c-137 93
-306 129 -488 105z m218 -330 c78 -17 151 -54 211 -109 217 -198 166 -572 -96
-699 -167 -82 -358 -56 -488 65 -221 207 -169 589 96 710 91 42 182 53 277 33z"/>
<path d="M7342 1510 c-318 -44 -554 -266 -617 -579 -21 -102 -16 -304 9 -396
41 -149 133 -290 248 -380 138 -108 279 -155 463 -155 167 0 283 36 401 123
l62 45 6 -26 c15 -72 88 -131 161 -132 45 0 116 40 142 79 l23 34 0 632 0 632
-22 33 c-13 18 -35 42 -49 53 -34 24 -106 33 -152 18 -46 -15 -94 -70 -103
-116 l-6 -35 -39 35 c-51 46 -164 102 -242 120 -83 19 -208 26 -285 15z m233
-335 c228 -60 361 -258 325 -487 -31 -205 -175 -340 -388 -364 -100 -11 -220
25 -310 94 -154 117 -200 391 -96 568 91 154 291 235 469 189z"/>
<path d="M90 1211 c-45 -24 -70 -59 -81 -112 -11 -57 -11 -891 0 -948 10 -48
33 -84 75 -115 21 -16 42 -21 91 -21 71 0 103 17 143 75 22 33 22 35 22 426
l0 394 315 0 c294 0 318 1 354 20 54 27 81 74 81 142 0 65 -26 111 -80 139
-32 18 -65 19 -460 19 -395 0 -428 -1 -460 -19z"/>
</g>
</svg>
